<svg width="16" height="16" viewBox="0 0 16 16" fill="none" xmlns="http://www.w3.org/2000/svg">
<path fill-rule="evenodd" clip-rule="evenodd" d="M3.8447 5.47603H0.738182V15.4703H3.8447V5.47603ZM3.29918 0.835176C3.00261 0.637017 2.65394 0.53125 2.29726 0.53125C1.81896 0.53125 1.36026 0.721249 1.02206 1.05945C0.683851 1.39765 0.493851 1.85635 0.493851 2.33464C0.493851 2.69132 0.599615 3.03998 0.797776 3.33655C0.995937 3.63312 1.27759 3.86426 1.60712 4.00076C1.93665 4.13725 2.29925 4.17296 2.64908 4.10338C2.99891 4.03379 3.32025 3.86204 3.57246 3.60983C3.82467 3.35762 3.99643 3.03629 4.06601 2.68646C4.1356 2.33664 4.09988 1.97404 3.96339 1.64451C3.82689 1.31499 3.59575 1.03334 3.29918 0.835176ZM8.77784 5.4755H5.7993V15.464H8.89418V10.5192C8.89418 9.21608 9.13851 7.95371 10.7558 7.95371C12.373 7.95371 12.373 9.44296 12.373 10.6064V15.4698H15.4795V9.98979C15.4795 7.30216 14.9036 5.23117 11.7564 5.23117C11.1667 5.20912 10.5822 5.34732 10.0649 5.63107C9.54756 5.91483 9.11684 6.33351 8.81856 6.84259H8.77784V5.4755Z" fill="#FFFFE6"/>
</svg>
