<svg width="18" height="18" viewBox="0 0 18 18" fill="none" xmlns="http://www.w3.org/2000/svg">
<path d="M8.6066 16.0707C7.62844 17.0489 6.44993 17.5379 5.07107 17.5379C3.69221 17.5379 2.5137 17.0489 1.53553 16.0707C0.55737 15.0925 0.0682873 13.914 0.0682873 12.5352C0.0682873 11.1563 0.55737 9.97779 1.53553 8.99962L3.65685 6.8783C3.8572 6.67795 4.0929 6.57778 4.36396 6.57778C4.63502 6.57778 4.87072 6.67796 5.07107 6.8783C5.27141 7.07865 5.37159 7.31435 5.37159 7.58541C5.37159 7.85647 5.27141 8.09217 5.07107 8.29252L2.94975 10.4138C2.36049 11.0031 2.06586 11.7102 2.06586 12.5352C2.06586 13.3601 2.36049 14.0672 2.94975 14.6565C3.539 15.2457 4.24611 15.5404 5.07107 15.5404C5.89603 15.5404 6.60313 15.2457 7.19239 14.6565L9.31371 12.5352C9.51406 12.3348 9.74976 12.2346 10.0208 12.2346C10.2919 12.2346 10.5276 12.3348 10.7279 12.5352C10.9283 12.7355 11.0284 12.9712 11.0284 13.2423C11.0284 13.5133 10.9283 13.749 10.7279 13.9494L8.6066 16.0707ZM7.19239 11.828C6.99204 12.0284 6.75634 12.1286 6.48528 12.1286C6.21422 12.1286 5.97852 12.0284 5.77817 11.828C5.57783 11.6277 5.47765 11.392 5.47765 11.1209C5.47765 10.8499 5.57783 10.6142 5.77817 10.4138L10.0208 6.1712C10.2212 5.97085 10.4569 5.87067 10.7279 5.87067C10.999 5.87067 11.2347 5.97085 11.435 6.1712C11.6354 6.37154 11.7355 6.60724 11.7355 6.8783C11.7355 7.14936 11.6354 7.38506 11.435 7.58541L7.19239 11.828ZM13.5563 11.1209C13.356 11.3213 13.1203 11.4215 12.8492 11.4215C12.5782 11.4215 12.3425 11.3213 12.1421 11.1209C11.9418 10.9206 11.8416 10.6849 11.8416 10.4138C11.8416 10.1428 11.9418 9.90708 12.1421 9.70673L14.2635 7.58541C14.8527 6.99615 15.1473 6.28905 15.1473 5.46409C15.1473 4.63913 14.8527 3.93202 14.2635 3.34277C13.6742 2.75351 12.9671 2.45888 12.1421 2.45888C11.3172 2.45889 10.6101 2.75351 10.0208 3.34277L7.89949 5.46409C7.69915 5.66444 7.46345 5.76461 7.19239 5.76461C6.92133 5.76461 6.68563 5.66444 6.48528 5.46409C6.28493 5.26374 6.18476 5.02804 6.18476 4.75698C6.18476 4.48592 6.28493 4.25022 6.48528 4.04988L8.6066 1.92855C9.58477 0.95039 10.7633 0.461308 12.1421 0.461308C13.521 0.461308 14.6995 0.95039 15.6777 1.92855C16.6558 2.90672 17.1449 4.08523 17.1449 5.46409C17.1449 6.84295 16.6558 8.02146 15.6777 8.99962L13.5563 11.1209Z" fill="#FFFFE6"/>
</svg>
