<svg width="24" height="25" viewBox="0 0 24 25" xmlns="http://www.w3.org/2000/svg">
<path d="M17.3334 9.15951C18.8061 9.15951 20 7.9656 20 6.49284C20 5.02008 18.8061 3.82617 17.3334 3.82617C15.8606 3.82617 14.6667 5.02008 14.6667 6.49284C14.6667 7.9656 15.8606 9.15951 17.3334 9.15951Z" stroke="#FFFFE6" stroke-width="1.5" stroke-linecap="round" stroke-linejoin="round"/>
<path d="M6.66667 15.3822C8.13943 15.3822 9.33333 14.1883 9.33333 12.7155C9.33333 11.2427 8.13943 10.0488 6.66667 10.0488C5.19391 10.0488 4 11.2427 4 12.7155C4 14.1883 5.19391 15.3822 6.66667 15.3822Z" stroke="#FFFFE6" stroke-width="1.5" stroke-linecap="round" stroke-linejoin="round"/>
<path d="M17.3334 21.6029C18.8061 21.6029 20 20.409 20 18.9362C20 17.4634 18.8061 16.2695 17.3334 16.2695C15.8606 16.2695 14.6667 17.4634 14.6667 18.9362C14.6667 20.409 15.8606 21.6029 17.3334 21.6029Z" stroke="#FFFFE6" stroke-width="1.5" stroke-linecap="round" stroke-linejoin="round"/>
<path d="M8.96893 14.0566L15.04 17.5944" stroke="#FFFFE6" stroke-width="1.5" stroke-linecap="round" stroke-linejoin="round"/>
<path d="M15.0312 7.83398L8.96893 11.3718" stroke="#FFFFE6" stroke-width="1.5" stroke-linecap="round" stroke-linejoin="round"/>
</svg>
