<svg width="21" height="18" viewBox="0 0 21 18" fill="none" xmlns="http://www.w3.org/2000/svg">
<path d="M17.3742 5.4326C17.3849 5.58671 17.3849 5.74081 17.3849 5.89634C17.3849 10.6353 13.7658 16.1008 7.14832 16.1008V16.0979C5.19349 16.1008 3.27926 15.5426 1.63361 14.4901C1.91786 14.5242 2.20353 14.5412 2.48992 14.5419C4.10992 14.5434 5.68362 14.0015 6.95811 13.0037C5.41861 12.9746 4.0686 11.974 3.59699 10.5131C4.13628 10.6168 4.69196 10.5955 5.22127 10.4514C3.54285 10.1133 2.33532 8.64327 2.33532 6.93603C2.33532 6.92041 2.33532 6.90549 2.33532 6.89058C2.83543 7.16825 3.39538 7.32236 3.96815 7.3394C2.38733 6.28622 1.90004 4.18981 2.85467 2.55074C4.68127 4.79132 7.37629 6.15342 10.2694 6.29759C9.97942 5.05195 10.3755 3.74666 11.3102 2.87102C12.7592 1.51318 15.0382 1.58278 16.4003 3.02655C17.206 2.86818 17.9783 2.57346 18.685 2.15588C18.4164 2.98607 17.8543 3.69127 17.1035 4.13938C17.8166 4.05558 18.5133 3.86526 19.1694 3.5748C18.6864 4.29633 18.078 4.92483 17.3742 5.4326Z" fill="#FFFFE6"/>
</svg>
