<svg width="20" height="20" viewBox="0 0 20 20" fill="none" xmlns="http://www.w3.org/2000/svg">
<path d="M18.586 12.7002H14.5C14.0226 12.7002 13.5648 12.8898 13.2272 13.2274C12.8897 13.565 12.7 14.0228 12.7 14.5002V18.5862" stroke="#FFFFE6" stroke-width="1.5" stroke-linecap="round" stroke-linejoin="round"/>
<path d="M5.5 2.20605V3.70005C5.5 4.41614 5.78446 5.10289 6.29081 5.60924C6.79716 6.11559 7.48392 6.40005 8.2 6.40005C8.67739 6.40005 9.13523 6.5897 9.47279 6.92726C9.81036 7.26483 10 7.72266 10 8.20005C10 9.19005 10.81 10.0001 11.8 10.0001C12.2774 10.0001 12.7352 9.81041 13.0728 9.47285C13.4104 9.13528 13.6 8.67744 13.6 8.20005C13.6 7.21005 14.41 6.40005 15.4 6.40005H18.253" stroke="#FFFFE6" stroke-width="1.5" stroke-linecap="round" stroke-linejoin="round"/>
<path d="M9.10072 18.9551V15.4001C9.10072 14.9227 8.91107 14.4649 8.57351 14.1273C8.23594 13.7897 7.77811 13.6001 7.30072 13.6001C6.82333 13.6001 6.36549 13.4105 6.02792 13.0729C5.69036 12.7353 5.50072 12.2775 5.50072 11.8001V10.9001C5.50072 10.4227 5.31107 9.96487 4.97351 9.62731C4.63594 9.28974 4.17811 9.1001 3.70072 9.1001H1.04572" stroke="#FFFFE6" stroke-width="1.5" stroke-linecap="round" stroke-linejoin="round"/>
<path d="M10 19C14.9706 19 19 14.9706 19 10C19 5.02944 14.9706 1 10 1C5.02944 1 1 5.02944 1 10C1 14.9706 5.02944 19 10 19Z" stroke="#FFFFE6" stroke-width="1.5" stroke-linecap="round" stroke-linejoin="round"/>
</svg>
