<svg width="70" height="79" viewBox="0 0 70 79" fill="none" xmlns="http://www.w3.org/2000/svg">
<path fill-rule="evenodd" clip-rule="evenodd" d="M35.2055 58.4899C35.2149 59.5473 36.0776 60.4073 37.1317 60.3234C47.8606 59.4689 56.6015 51.5587 58.713 41.2342C59.0323 39.6727 59.2 38.0559 59.2 36.4C59.2 23.8187 49.5191 13.4984 37.2 12.4821C36.5405 12.4276 35.8734 12.4 35.1998 12.4C21.9451 12.4001 11.2 23.1452 11.2 36.4C11.2 37.8225 11.3238 39.2169 11.5616 40.5727C11.657 41.1167 12.1753 41.4804 12.7193 41.385C13.2633 41.2896 13.627 40.7713 13.5316 40.2273C13.3696 39.3038 13.2652 38.3601 13.2223 37.4H39.1944C39.1285 43.235 38.4897 48.0586 37.6037 51.6755C37.1354 53.5872 36.6019 55.1456 36.0569 56.3311C35.8758 56.725 35.6974 57.0693 35.5244 57.367C35.3253 57.7093 35.2019 58.0939 35.2055 58.4899ZM19.2162 35.4H13.2223C13.6489 25.8655 20.1443 17.9101 28.9385 15.3039C23.8002 19.1526 19.5108 26.3049 19.2162 35.4ZM29.2055 35.4H21.2171C21.5616 25.3929 27.0387 18.1824 32.5281 15.4176C31.9133 16.7304 31.3421 18.4354 30.8529 20.4647C29.9243 24.3158 29.2713 29.4162 29.2055 35.4ZM32.7971 20.9334C31.9104 24.6111 31.2714 29.5514 31.2056 35.4H39.1944C39.1285 29.565 38.4897 24.7414 37.6037 21.1245C37.1354 19.2128 36.6019 17.6545 36.0569 16.4689C35.7423 15.7842 35.4352 15.2494 35.1513 14.8487C34.9064 15.1808 34.6307 15.6438 34.3399 16.2645C33.7988 17.4198 33.266 18.9888 32.7971 20.9334ZM39.5462 52.1514C40.4753 48.3584 41.1285 43.3724 41.1945 37.4H49.1678C48.9132 45.3063 45.0001 53.402 37.8403 57.2397L37.8741 57.1665C38.4854 55.8368 39.0561 54.1519 39.5462 52.1514ZM41.1945 35.4H49.166C48.8856 27.4837 45.0208 19.4091 37.8403 15.5603L37.8741 15.6335C38.4854 16.9632 39.0561 18.6481 39.5462 20.6486C40.4753 24.4416 41.1285 29.4276 41.1945 35.4Z" fill="#FFFFE6"/>
<path d="M24.6545 41.4909C24.6545 42.0934 24.1661 42.5818 23.5636 42.5818C22.9611 42.5818 22.4727 42.0934 22.4727 41.4909C22.4727 40.8884 22.9611 40.4 23.5636 40.4C24.1661 40.4 24.6545 40.8884 24.6545 41.4909Z" fill="#FFFFE6"/>
<path d="M30.109 42.5818C30.109 43.1843 29.6206 43.6727 29.0181 43.6727C28.4156 43.6727 27.9272 43.1843 27.9272 42.5818C27.9272 41.9793 28.4156 41.4909 29.0181 41.4909C29.6206 41.4909 30.109 41.9793 30.109 42.5818Z" fill="#FFFFE6"/>
<path d="M25.4258 46.1741C25.7181 46.4663 25.82 46.8985 25.6894 47.2905L20.2348 63.6541C20.0917 64.0838 19.6978 64.3803 19.2452 64.3991C18.7927 64.4179 18.3756 64.1552 18.1972 63.7388L15.0964 56.5036L7.86114 53.4027C7.44483 53.2243 7.18208 52.8072 7.2009 52.3547C7.21972 51.9022 7.51621 51.5083 7.94589 51.3651L24.3095 45.9106C24.7015 45.7799 25.1337 45.8819 25.4258 46.1741Z" fill="#FFFFE6"/>
<path d="M30.1092 49.1273C30.7117 49.1273 31.2001 48.6389 31.2001 48.0364C31.2001 47.4339 30.7117 46.9455 30.1092 46.9455C29.5067 46.9455 29.0183 47.4339 29.0183 48.0364C29.0183 48.6389 29.5067 49.1273 30.1092 49.1273Z" fill="#FFFFE6"/>
</svg>
