<svg width="24" height="25" viewBox="0 0 24 25" fill="none" xmlns="http://www.w3.org/2000/svg">
<path d="M15 11.2148C15 12.0105 14.6839 12.7736 14.1213 13.3362C13.5587 13.8988 12.7956 14.2148 12 14.2148C11.2044 14.2148 10.4413 13.8988 9.87868 13.3362C9.31607 12.7736 9 12.0105 9 11.2148C9 10.4192 9.31607 9.65613 9.87868 9.09352C10.4413 8.53091 11.2044 8.21484 12 8.21484C12.7956 8.21484 13.5587 8.53091 14.1213 9.09352C14.6839 9.65613 15 10.4192 15 11.2148Z" stroke="#FFFFE6" stroke-width="1.5" stroke-linecap="round" stroke-linejoin="round"/>
<path d="M19.5 11.2148C19.5 18.3568 12 22.4648 12 22.4648C12 22.4648 4.5 18.3568 4.5 11.2148C4.5 9.22572 5.29018 7.31807 6.6967 5.91154C8.10322 4.50502 10.0109 3.71484 12 3.71484C13.9891 3.71484 15.8968 4.50502 17.3033 5.91154C18.7098 7.31807 19.5 9.22572 19.5 11.2148Z" stroke="#FFFFE6" stroke-width="1.5" stroke-linecap="round" stroke-linejoin="round"/>
</svg>
