<svg width="20" height="14" viewBox="0 0 20 14" xmlns="http://www.w3.org/2000/svg">
<g id="Hide">
<g id="Hide_2">
<path d="M10 9C11.0804 9 11.9562 8.10457 11.9562 7C11.9562 5.89543 11.0804 5 10 5C8.91961 5 8.04378 5.89543 8.04378 7C8.04378 8.10457 8.91961 9 10 9Z" />
<path fill-rule="evenodd" clip-rule="evenodd" d="M0.666626 7.00004C1.91299 2.94291 5.62032 0 9.99997 0C14.3796 0 18.0869 2.94288 19.3333 6.99996C18.0869 11.0571 14.3796 14 9.99995 14C5.62033 14 1.91301 11.0571 0.666626 7.00004ZM13.9125 7C13.9125 9.20914 12.1608 11 10 11C7.83922 11 6.08756 9.20914 6.08756 7C6.08756 4.79086 7.83922 3 10 3C12.1608 3 13.9125 4.79086 13.9125 7Z" />
</g>
</g>
</svg>
