<svg width="16" height="16" viewBox="0 0 16 16" xmlns="http://www.w3.org/2000/svg">
<g id="Opacity">
<g id="Opacity_2">
<path d="M8.94692 6.28667L9.46251 6.1562L9.20237 5.12193L8.68674 5.25237C7.62914 5.52153 6.66705 6.08048 5.9081 6.86671C5.14915 7.65293 4.62327 8.63542 4.38928 9.70427L4.27604 10.2254L5.31521 10.4525L5.42841 9.93137C5.62248 9.05741 6.05388 8.25436 6.67487 7.61109C7.29587 6.96782 8.08223 6.50943 8.94692 6.28667Z" />
<path d="M11.5538 4.3957C10.8927 1.86923 8.59636 0 5.87287 0C2.63452 0 0 2.6422 0 5.89C0 8.6439 1.89447 10.9621 4.44487 11.6033C4.77445 12.8629 5.51079 13.9775 6.53883 14.773C7.56687 15.5684 8.82869 15.9999 10.1271 16C13.3654 16 16 13.3578 16 10.1102C15.9997 7.40237 14.1467 5.04453 11.5538 4.3957ZM1.06356 5.89C1.06356 3.23033 3.22094 1.06667 5.87287 1.06667C8.5248 1.06667 10.6822 3.23033 10.6822 5.89C10.6822 8.54967 8.52477 10.7133 5.87287 10.7133C3.22097 10.7133 1.06356 8.54937 1.06356 5.89ZM10.1271 14.9333C8.102 14.9333 6.29796 13.6382 5.6122 11.7736C5.69861 11.7774 5.78549 11.7797 5.87287 11.7797C6.2375 11.7798 6.60135 11.7458 6.9597 11.6782L10.2044 14.9323C10.1785 14.9328 10.1528 14.9333 10.1271 14.9333ZM11.5074 14.7306L8.11832 11.3318C8.64125 11.1137 9.13002 10.821 9.56949 10.4627L13.041 13.9443C12.5812 14.297 12.0617 14.5634 11.5074 14.7306ZM13.8107 13.2075L10.3316 9.71857C10.7126 9.27312 11.0253 8.77318 11.2592 8.23523L14.6795 11.6655C14.4872 12.2289 14.1928 12.7517 13.8107 13.2075ZM14.9272 10.4051L11.6228 7.09107C11.7047 6.69595 11.7459 6.29343 11.7458 5.88987C11.7458 5.78037 11.7425 5.67163 11.7366 5.56363C12.672 5.89861 13.4814 6.51515 14.0542 7.32897C14.6269 8.14279 14.9351 9.11417 14.9365 10.1103C14.9362 10.2092 14.9331 10.3075 14.9272 10.4051Z" />
</g>
</g>
</svg>
