<svg width="20" height="21" viewBox="0 0 20 21" fill="none" xmlns="http://www.w3.org/2000/svg">
<path fill-rule="evenodd" clip-rule="evenodd" d="M9.99998 3.42383C10.3452 3.42383 10.625 3.70365 10.625 4.04883V10.0905H16.6666C17.0118 10.0905 17.2916 10.3703 17.2916 10.7155C17.2916 11.0607 17.0118 11.3405 16.6666 11.3405H10.625V17.3822C10.625 17.7273 10.3452 18.0072 9.99998 18.0072C9.6548 18.0072 9.37498 17.7273 9.37498 17.3822V11.3405H3.33331C2.98813 11.3405 2.70831 11.0607 2.70831 10.7155C2.70831 10.3703 2.98814 10.0905 3.33331 10.0905H9.37498V4.04883C9.37498 3.70365 9.6548 3.42383 9.99998 3.42383Z" fill="#FFFFE6"/>
</svg>
