<svg width="105" height="105" viewBox="0 0 105 105" fill="none" xmlns="http://www.w3.org/2000/svg">
<rect width="104.3" height="104.3" transform="matrix(-1 0 0 1 104.3 0)" fill="#09131D"/>
<path d="M47.2766 70.1194C57.1905 66.5022 66.8366 60.4734 74.54 50.6934C78.6261 45.4685 81.3726 40.3106 83.1142 36.0234C85.6597 40.8464 87.0664 46.3393 87.0664 52.1001C87.0664 71.3922 71.4586 87 52.1666 87C48.6163 87 45.267 86.4641 42.0516 85.4593L47.2766 70.1194Z" fill="#FFFFE6"/>
<path d="M44.0615 71.2583L39.5065 84.6556C34.0806 82.579 29.3915 79.1627 25.6403 74.8086C31.5351 74.3397 37.7648 73.2009 44.0615 71.2583Z" fill="#FFFFE6"/>
<path d="M58.4636 37.2963C58.9325 37.3633 59.4014 37.3633 59.8703 37.3633C63.5546 37.0283 66.301 33.813 66.0331 30.1287C65.8321 27.8512 64.5594 25.9756 62.7508 24.9038L64.5594 19.5449C70.1862 21.6215 75.1432 25.2388 78.9614 29.7938C77.5547 34.0809 74.8083 40.6456 69.5834 47.1433C64.2245 53.8419 57.6598 58.9998 49.7554 62.6171L58.4636 37.2963Z" fill="#FFFFE6"/>
<path d="M52.1667 17.2002C55.583 17.2002 58.8653 17.6691 62.0137 18.6069L60.205 23.9658C59.7361 23.8988 59.2672 23.8988 58.7983 23.8988C55.1141 24.2338 52.3677 27.4491 52.6356 31.1333C52.8366 33.4109 54.1093 35.2865 55.9179 36.3583L46.4729 64.0906C39.1714 66.971 30.8651 68.6456 21.554 69.1145C18.7406 64.0906 17.1329 58.3298 17.1329 52.167C17.1999 32.808 32.8747 17.2002 52.1667 17.2002Z" fill="#FFFFE6"/>
</svg>
