<svg width="58" height="58" viewBox="0 0 58 58" fill="none" xmlns="http://www.w3.org/2000/svg">
<path d="M13.4026 22.9242V29.7768L8.28375 25.2084C7.21045 26.4193 6.54996 28.0155 6.54996 29.7768C6.54996 33.5471 9.60474 36.6294 13.4026 36.6294C17.2004 36.6294 20.2552 33.5746 20.2552 29.7768C20.2552 25.9789 17.1729 22.9242 13.4026 22.9242Z" fill="#09131D"/>
<path d="M48.2159 22.1553C45.7391 22.1553 43.7026 24.1643 43.7026 26.6687V27.2466H52.7018V26.6687C52.7018 24.1643 50.6928 22.1553 48.2159 22.1553Z" fill="#09131D"/>
<path d="M52.7018 28.4023H43.7026V30.026H52.7018V28.4023Z" fill="#09131D"/>
<path d="M52.7018 31.2347H43.7026V32.8585H52.7018V31.2347Z" fill="#09131D"/>
<path d="M41.3633 43.8942H37.1526C37.1526 55.3702 37.1527 54.6547 47.9132 54.6547H51.6284L41.3633 49.5359V43.8942Z" fill="#09131D"/>
<path d="M13.8982 47.8846C11.2837 50.4991 9.9352 53.9392 9.90768 57.3792L23.3927 43.8942C19.9527 43.9492 16.5126 45.2702 13.8982 47.8846Z" fill="#09131D"/>
<path d="M18.4939 57.4086L31.979 43.9235C28.5389 43.951 25.0988 45.272 22.4844 47.914C19.8699 50.5284 18.5214 53.9685 18.4939 57.4086Z" fill="#09131D"/>
<path d="M55.2062 21.3559C58.8939 14.806 57.9307 6.32972 52.3716 0.770575L51.601 0L40.18 11.421C37.6756 5.00874 31.4284 0.440329 24.1355 0.440329H23.0347V22.9521C20.8881 19.9249 17.3655 17.9434 13.375 17.9434C12.797 17.9434 12.2191 17.9984 11.6687 18.081L22.1815 8.39376H16.5674L11.3385 18.136C11.1733 18.1636 11.0357 18.1911 10.8706 18.2186L5.61419 8.36624H0L10.7055 18.2461C5.47658 19.457 1.56867 24.163 1.56867 29.7497V41.556H13.375C17.3655 41.556 20.8881 39.5745 23.0347 36.5473V41.5835H41.3358V37.483L57.1051 49.0966V26.805C57.1051 24.796 56.3896 22.8696 55.2062 21.3559ZM13.4025 39.3819H3.77031V29.7772C3.77031 24.4658 8.09103 20.1726 13.375 20.1726C18.6864 20.1726 22.9796 24.4933 22.9796 29.7772C23.0072 35.0612 18.6864 39.3819 13.4025 39.3819ZM39.1617 39.4094H25.2363V2.69701C26.4747 2.77957 27.6856 3.02726 28.814 3.41255V22.8145L38.4462 13.1548C38.8865 14.5859 39.1342 16.0995 39.1342 17.6682V39.4094H39.1617ZM40.923 13.8153L51.5735 3.16486C52.3991 4.10056 53.0596 5.11882 53.61 6.19212L41.3633 18.4388V17.6407C41.3633 16.3197 41.1982 15.0537 40.923 13.8153ZM54.9035 44.7759L41.501 34.896V26.86C41.501 23.1723 44.5007 20.1726 48.1884 20.1726C51.8762 20.1726 54.8759 23.1723 54.8759 26.86V44.7759H54.9035Z" fill="#09131D"/>
<path d="M27.4652 37.2081H36.9322V33.4103V22.8975L27.4652 32.4196V37.2081Z" fill="#09131D"/>
</svg>
