<svg width="58" height="58" viewBox="0 0 58 58" fill="none" xmlns="http://www.w3.org/2000/svg">
<path d="M56.9335 30.7154C57.3298 25.6664 56.376 20.6028 54.1704 16.0467C50.5196 19.5252 46.204 22.2261 41.4839 23.9865C41.8634 28.6581 41.6532 33.3591 40.8582 37.9779C46.602 36.5273 52.0444 34.0685 56.9335 30.7154ZM36.2122 38.919C37.1461 34.442 37.4726 29.8589 37.1829 25.2942C34.3994 25.9597 31.4961 26.3115 28.5108 26.3115C25.5256 26.3115 22.6222 25.9597 19.8387 25.2942C19.5558 29.8589 19.8823 34.441 20.8094 38.919C25.9139 39.7036 31.1078 39.7036 36.2122 38.919ZM21.9965 43.5193C26.3243 44.0328 30.6974 44.0328 35.0252 43.5193C33.5378 48.3206 31.342 52.8717 28.5108 57.0211C25.6796 52.8717 23.4838 48.3207 21.9965 43.5193ZM16.1635 37.9808C15.3642 33.3605 15.1539 28.657 15.5378 23.9836C10.8166 22.2236 6.49994 19.5226 2.8483 16.0438C0.643184 20.601 -0.309611 25.6657 0.0881929 30.7154C4.97726 34.0685 10.4196 36.5302 16.1635 37.9808ZM55.8663 36.5793C54.39 41.5958 51.5717 46.1108 47.7172 49.6344C43.8626 53.158 39.1192 55.5555 34.0018 56.5666C36.5646 52.2456 38.5206 47.5907 39.8144 42.7335C45.4559 41.5478 50.874 39.4716 55.8663 36.5823V36.5793ZM1.15539 36.5793C6.07329 39.4263 11.4765 41.5285 17.2073 42.7335C18.5011 47.5907 20.4571 52.2456 23.0199 56.5666C17.9028 55.5558 13.1596 53.1587 9.30514 49.6357C5.45064 46.1126 2.63208 41.5981 1.15539 36.5823V36.5793ZM34.0018 0.451524C41.2463 1.87942 47.6563 6.0687 51.884 12.1384C48.7633 15.3002 45.0379 17.7973 40.9313 19.48C39.8248 12.7594 37.4746 6.30562 34.0018 0.451524ZM28.5108 0C32.7779 6.25126 35.5815 13.3885 36.7122 20.8786C34.0895 21.553 31.3411 21.9136 28.5108 21.9136C25.6806 21.9136 22.9321 21.5559 20.3095 20.8786C21.4401 13.3884 24.2437 6.25121 28.5108 0ZM23.0199 0.451524C19.547 6.30559 17.1968 12.7594 16.0904 19.48C11.9837 17.7974 8.25831 15.3002 5.13766 12.1384C9.36565 6.06958 15.7757 1.8784 23.0199 0.451524Z" fill="#09131D"/>
</svg>
