<svg width="49" height="62" viewBox="0 0 49 62" fill="none" xmlns="http://www.w3.org/2000/svg">
<path d="M44.5439 26.056L42.1704 23.6713L36.3183 23.6462L37.9885 21.9895H48.6127L46.2392 19.6048L40.3871 19.5797L42.5722 17.4083L40.1987 15.0362L37.8127 17.4209V11.5219L35.4015 9.14974V19.8307L33.7438 21.4874V15.5884L31.3327 13.2163V23.8973L29.675 25.554V19.655L27.2638 17.2828V27.9638L10.9131 44.2928V36.2601L18.4229 28.7545H15.0698L10.9131 32.8713V30.5117L18.4229 23.0061H15.0698L10.9131 27.1229V24.7633L18.4229 17.2577H15.0698L10.9131 21.3619V19.0149L18.4229 11.4968H15.0698L10.9131 15.6135V13.2665L18.4229 5.74839H15.0698L10.9131 9.86515V7.50555L18.4229 0H15.0698L10.9131 4.11675V0H7.56003V4.40543L3.37815 0.238471L0 0.263573L7.56003 7.81932V10.1538L3.37815 5.98687L0 6.01197L7.56003 13.5677V15.9148L3.37815 11.7353L0 11.7729L7.56003 19.3161V21.6632L3.37815 17.4837L0 17.5213L7.56003 25.0645V27.4116L3.37815 23.2321L0 23.2697L7.56003 30.8255V33.16L3.37815 28.993L0 29.0181L7.56003 36.5738V38.9084L3.37815 34.7414L0 34.7665L7.56003 42.3222V44.6567L3.37815 40.4898L0 40.5149L7.56003 48.0706V57.3082V58.5131L10.9131 61.7513V49.0496L17.6442 42.3222H28.2685L25.895 39.9375L20.0429 39.9124L21.7131 38.2557H32.3373L29.9638 35.871L24.1117 35.8459L25.782 34.1891H36.4062L34.0327 31.8044L28.1806 31.7793L29.8508 30.1226H40.475L38.1015 27.7379L32.2494 27.7128L33.9197 26.056H44.5439Z" fill="#09131D"/>
</svg>
