<svg width="54" height="66" viewBox="0 0 54 66" fill="none" xmlns="http://www.w3.org/2000/svg">
<path d="M24.0367 32.9976C21.2013 16.5211 7.17975 15.4669 7.17975 15.4669C8.11076 30.3406 24.0367 32.9976 24.0367 32.9976Z" fill="#09131D"/>
<path d="M51.7415 45.8582H38.6087C38.6087 44.0099 37.5225 42.4359 35.9708 41.7427V40.703C35.9708 39.4756 35.1385 38.4503 34.01 38.1759V37.6416C34.01 36.2698 32.9239 35.1434 31.5697 35.1434H29.3127V37.3961C29.3127 38.7824 28.1983 39.9232 26.8441 39.9232C25.4899 39.9232 24.3755 38.7824 24.3755 37.3961V35.1434H22.711C21.3709 35.1434 20.2706 36.2553 20.2706 37.6416V38.1182C18.9446 38.2048 17.8867 39.3312 17.8867 40.7174V41.6561C16.208 42.277 14.9949 43.9377 14.9949 45.8727H1.89023C0.846372 45.8727 0 46.7391 0 47.8077C0 48.8763 0.846372 49.7427 1.89023 49.7427H51.7274C52.7713 49.7427 53.6177 48.8763 53.6177 47.8077C53.6177 46.7391 52.7854 45.8582 51.7415 45.8582Z" fill="#09131D"/>
<path d="M26.0823 37.4094C26.0823 37.8426 26.435 38.2036 26.8582 38.2036C27.2813 38.2036 27.634 37.8426 27.634 37.4094V30.6281C30.0462 26.5559 37.1839 12.2455 26.6607 -1.52588e-05C26.6607 -1.52588e-05 15.3757 13.3863 26.0823 30.4837V37.4094Z" fill="#09131D"/>
<path d="M46.4941 15.4669C46.4941 15.4669 32.4866 16.5211 29.6371 32.9976C29.6371 32.9976 45.563 30.3406 46.4941 15.4669Z" fill="#09131D"/>
<path d="M14.2617 64.1878C14.2617 63.5 13.6919 62.9425 12.989 62.9425C12.2861 62.9425 11.7163 63.5 11.7163 64.1878C11.7163 64.8756 12.2861 65.4332 12.989 65.4332C13.6919 65.4332 14.2617 64.8756 14.2617 64.1878Z" fill="#09131D"/>
<path d="M19.8674 64.1878C19.8674 63.5 19.2976 62.9425 18.5947 62.9425C17.8918 62.9425 17.322 63.5 17.322 64.1878C17.322 64.8756 17.8918 65.4332 18.5947 65.4332C19.2976 65.4332 19.8674 64.8756 19.8674 64.1878Z" fill="#09131D"/>
<path d="M25.4731 64.1878C25.4731 63.5 24.9033 62.9425 24.2004 62.9425C23.4975 62.9425 22.9277 63.5 22.9277 64.1878C22.9277 64.8756 23.4975 65.4332 24.2004 65.4332C24.9033 65.4332 25.4731 64.8756 25.4731 64.1878Z" fill="#09131D"/>
<path d="M31.0789 64.1878C31.0789 63.5 30.509 62.9425 29.8061 62.9425C29.1032 62.9425 28.5334 63.5 28.5334 64.1878C28.5334 64.8756 29.1032 65.4332 29.8061 65.4332C30.509 65.4332 31.0789 64.8756 31.0789 64.1878Z" fill="#09131D"/>
<path d="M36.6846 64.1878C36.6846 63.5 36.1147 62.9425 35.4118 62.9425C34.7089 62.9425 34.1391 63.5 34.1391 64.1878C34.1391 64.8756 34.7089 65.4332 35.4118 65.4332C36.1147 65.4332 36.6846 64.8756 36.6846 64.1878Z" fill="#09131D"/>
<path d="M42.2903 64.1878C42.2903 63.5 41.7204 62.9425 41.0175 62.9425C40.3146 62.9425 39.7448 63.5 39.7448 64.1878C39.7448 64.8756 40.3146 65.4332 41.0175 65.4332C41.7204 65.4332 42.2903 64.8756 42.2903 64.1878Z" fill="#09131D"/>
<path d="M5.91817 58.7028C5.91817 57.9799 5.31925 57.3939 4.58044 57.3939C3.84164 57.3939 3.24272 57.9799 3.24272 58.7028C3.24272 59.4257 3.84164 60.0117 4.58044 60.0117C5.31925 60.0117 5.91817 59.4257 5.91817 58.7028Z" fill="#09131D"/>
<path d="M11.5239 58.7028C11.5239 57.9799 10.925 57.3939 10.1861 57.3939C9.44734 57.3939 8.84843 57.9799 8.84843 58.7028C8.84843 59.4257 9.44734 60.0117 10.1861 60.0117C10.925 60.0117 11.5239 59.4257 11.5239 58.7028Z" fill="#09131D"/>
<path d="M17.1296 58.7028C17.1296 57.9799 16.5307 57.3939 15.7919 57.3939C15.053 57.3939 14.4541 57.9799 14.4541 58.7028C14.4541 59.4257 15.053 60.0117 15.7919 60.0117C16.5307 60.0117 17.1296 59.4257 17.1296 58.7028Z" fill="#09131D"/>
<path d="M22.7353 58.7028C22.7353 57.9799 22.1364 57.3939 21.3976 57.3939C20.6587 57.3939 20.0598 57.9799 20.0598 58.7028C20.0598 59.4257 20.6587 60.0117 21.3976 60.0117C22.1364 60.0117 22.7353 59.4257 22.7353 58.7028Z" fill="#09131D"/>
<path d="M28.341 58.7028C28.341 57.9799 27.7421 57.3939 27.0032 57.3939C26.2644 57.3939 25.6655 57.9799 25.6655 58.7028C25.6655 59.4257 26.2644 60.0117 27.0032 60.0117C27.7421 60.0117 28.341 59.4257 28.341 58.7028Z" fill="#09131D"/>
<path d="M33.9467 58.7028C33.9467 57.9799 33.3478 57.3939 32.609 57.3939C31.8701 57.3939 31.2712 57.9799 31.2712 58.7028C31.2712 59.4257 31.8701 60.0117 32.609 60.0117C33.3478 60.0117 33.9467 59.4257 33.9467 58.7028Z" fill="#09131D"/>
<path d="M39.5524 58.7028C39.5524 57.9799 38.9535 57.3939 38.2147 57.3939C37.4759 57.3939 36.8769 57.9799 36.8769 58.7028C36.8769 59.4257 37.4759 60.0117 38.2147 60.0117C38.9535 60.0117 39.5524 59.4257 39.5524 58.7028Z" fill="#09131D"/>
<path d="M45.1581 58.7028C45.1581 57.9799 44.5592 57.3939 43.8204 57.3939C43.0815 57.3939 42.4826 57.9799 42.4826 58.7028C42.4826 59.4257 43.0816 60.0117 43.8204 60.0117C44.5592 60.0117 45.1581 59.4257 45.1581 58.7028Z" fill="#09131D"/>
<path d="M50.7638 58.7028C50.7638 57.9799 50.1649 57.3939 49.4261 57.3939C48.6873 57.3939 48.0883 57.9799 48.0883 58.7028C48.0883 59.4257 48.6873 60.0117 49.4261 60.0117C50.1649 60.0117 50.7638 59.4257 50.7638 58.7028Z" fill="#09131D"/>
<path d="M3.18029 53.2178C3.18029 52.4598 2.55228 51.8453 1.77759 51.8453C1.00291 51.8453 0.374892 52.4598 0.374892 53.2178C0.374892 53.9758 1.00291 54.5903 1.77759 54.5903C2.55228 54.5903 3.18029 53.9758 3.18029 53.2178Z" fill="#09131D"/>
<path d="M8.78599 53.2178C8.78599 52.4598 8.15798 51.8453 7.3833 51.8453C6.6086 51.8453 5.9806 52.4598 5.9806 53.2178C5.9806 53.9758 6.6086 54.5903 7.3833 54.5903C8.15798 54.5903 8.78599 53.9758 8.78599 53.2178Z" fill="#09131D"/>
<path d="M14.3917 53.2178C14.3917 52.4598 13.7637 51.8453 12.989 51.8453C12.2143 51.8453 11.5863 52.4598 11.5863 53.2178C11.5863 53.9758 12.2143 54.5903 12.989 54.5903C13.7637 54.5903 14.3917 53.9758 14.3917 53.2178Z" fill="#09131D"/>
<path d="M19.9974 53.2178C19.9974 52.4598 19.3694 51.8453 18.5947 51.8453C17.82 51.8453 17.192 52.4598 17.192 53.2178C17.192 53.9758 17.82 54.5903 18.5947 54.5903C19.3694 54.5903 19.9974 53.9758 19.9974 53.2178Z" fill="#09131D"/>
<path d="M25.6031 53.2178C25.6031 52.4598 24.9751 51.8453 24.2004 51.8453C23.4257 51.8453 22.7977 52.4598 22.7977 53.2178C22.7977 53.9758 23.4257 54.5903 24.2004 54.5903C24.9751 54.5903 25.6031 53.9758 25.6031 53.2178Z" fill="#09131D"/>
<path d="M31.2088 53.2178C31.2088 52.4598 30.5808 51.8453 29.8061 51.8453C29.0314 51.8453 28.4034 52.4598 28.4034 53.2178C28.4034 53.9758 29.0314 54.5903 29.8061 54.5903C30.5808 54.5903 31.2088 53.9758 31.2088 53.2178Z" fill="#09131D"/>
<path d="M36.8145 53.2178C36.8145 52.4598 36.1865 51.8453 35.4118 51.8453C34.6371 51.8453 34.0091 52.4598 34.0091 53.2178C34.0091 53.9758 34.6371 54.5903 35.4118 54.5903C36.1865 54.5903 36.8145 53.9758 36.8145 53.2178Z" fill="#09131D"/>
<path d="M42.4202 53.2178C42.4202 52.4598 41.7922 51.8453 41.0175 51.8453C40.2428 51.8453 39.6148 52.4598 39.6148 53.2178C39.6148 53.9758 40.2428 54.5903 41.0175 54.5903C41.7922 54.5903 42.4202 53.9758 42.4202 53.2178Z" fill="#09131D"/>
<path d="M48.0259 53.2178C48.0259 52.4598 47.3979 51.8453 46.6232 51.8453C45.8485 51.8453 45.2205 52.4598 45.2205 53.2178C45.2205 53.9758 45.8485 54.5903 46.6232 54.5903C47.3979 54.5903 48.0259 53.9758 48.0259 53.2178Z" fill="#09131D"/>
<path d="M53.6316 53.2178C53.6316 52.4598 53.0036 51.8453 52.2289 51.8453C51.4542 51.8453 50.8262 52.4598 50.8262 53.2178C50.8262 53.9758 51.4542 54.5903 52.2289 54.5903C53.0036 54.5903 53.6316 53.9758 53.6316 53.2178Z" fill="#09131D"/>
</svg>
