<svg width="50" height="61" viewBox="0 0 50 61" fill="none" xmlns="http://www.w3.org/2000/svg">
<path d="M42.8616 30.0501V22.8729L45.88 25.8913L49.0326 22.7388L39.3066 12.9457L49.0326 3.15257L45.88 0L36.0869 9.7931L26.3609 0L23.2083 3.15257L33.0014 12.9457L23.1412 22.7388L26.2938 25.8913L28.7085 23.4766V32.5989H27.367L39.9102 45.1422H37.6967L25.2206 32.5989H22.4034L34.8795 45.1422H32.666L20.1228 32.5989H17.3056L29.8488 45.1422H27.6353L15.025 32.5989H12.2078L24.7511 45.1422H22.4034L9.86018 32.5989L4.02457 37.6967V32.5319H0.335388V45.0751V60.3684H4.02457H37.6967H42.7945H47.3557V54.8011H42.7945V47.1544V45.0751V38.4346L36.0869 31.9282V29.5135L42.7945 36.0198V32.3977L36.0869 25.8913V23.4766L42.8616 30.0501ZM10.3968 56.3439H6.03685V47.6911H10.3968V56.3439ZM25.0864 53.5937H20.5253V49.0326H25.0864V53.5937ZM31.727 53.5937H27.1658V49.0326H31.727V53.5937ZM38.3675 53.5937H33.8063V49.0326H38.3675V53.5937Z" fill="#09131D"/>
<path d="M9.32342 20.3235C12.1759 20.3235 14.4883 18.0111 14.4883 15.1587C14.4883 12.3062 12.1759 9.9938 9.32342 9.9938C6.47095 9.9938 4.15857 12.3062 4.15857 15.1587C4.15857 18.0111 6.47095 20.3235 9.32342 20.3235Z" fill="#09131D"/>
<path d="M9.32357 24.4835C14.4884 24.4835 18.6471 20.3248 18.6471 15.16C18.6471 9.99511 14.4884 5.8364 9.32357 5.8364C4.15871 5.8364 0 10.0622 0 15.16C0 20.2577 4.15871 24.4835 9.32357 24.4835ZM9.32357 7.84868C13.3481 7.84868 16.6349 11.1354 16.6349 15.16C16.6349 19.1845 13.3481 22.4712 9.32357 22.4712C5.29901 22.4712 2.01228 19.1845 2.01228 15.16C2.01228 11.1354 5.29901 7.84868 9.32357 7.84868Z" fill="#09131D"/>
</svg>
