<svg width="61" height="61" viewBox="0 0 61 61" fill="none" xmlns="http://www.w3.org/2000/svg">
<path d="M20.2941 10.1996L40.588 10.1996C40.588 4.57031 36.0454 4.07986e-06 30.4503 4.32443e-06C24.8552 4.569e-06 20.2941 4.57031 20.2941 10.1996Z" fill="#09131D"/>
<path d="M20.2941 31.1746L40.588 31.1746C40.588 25.5453 36.0454 20.975 30.4503 20.975C24.8552 20.975 20.2941 25.5453 20.2941 31.1746Z" fill="#09131D"/>
<path d="M20.2941 50.6841L40.588 50.6841C40.588 45.0548 36.0454 40.4845 30.4503 40.4845C24.8552 40.4845 20.2941 45.0363 20.2941 50.6841Z" fill="#09131D"/>
<path d="M40.5877 50.6834L60.8816 50.6834C60.8816 56.3127 56.339 60.883 50.7254 60.883C45.1118 60.883 40.5877 56.3127 40.5877 50.6834Z" fill="#09131D"/>
<path d="M40.5876 31.1769L60.8814 31.1769C60.8814 36.8062 56.3388 41.3765 50.7437 41.3765C45.1486 41.3765 40.5876 36.8247 40.5876 31.1769Z" fill="#09131D"/>
<path d="M40.5876 10.2019L60.8814 10.2019C60.8814 15.8311 56.3388 20.4014 50.7437 20.4014C45.1486 20.4014 40.5876 15.8497 40.5876 10.2019Z" fill="#09131D"/>
<path d="M-4.45838e-07 31.177L20.2939 31.177C20.2939 36.8062 15.7513 41.3765 10.1562 41.3765C4.56104 41.3765 -1.98962e-07 36.8248 -4.45838e-07 31.177Z" fill="#09131D"/>
</svg>
