<svg width="53" height="35" viewBox="0 0 53 35" fill="none" xmlns="http://www.w3.org/2000/svg">
<g id="layer1">
<g id="g15525">
<path id="path5607" d="M52.4467 0H0.330566V34.8628H52.4467V0Z" fill="#254AA5"/>
<path id="path5611" d="M26.9539 4.95803H28.7664L27.3054 6.09708L27.8738 7.9028L26.4174 6.79106L24.961 7.9028L25.5363 6.09708L24.0615 4.95803H25.8695L26.4174 3.19566L26.9539 4.95803Z" fill="#FFF200"/>
<path id="path5615" d="M27.0183 28.2077H28.8353L27.3721 29.3056L27.9405 31.0405L26.4841 29.9722L25.03 31.0405L25.6029 29.3056L24.126 28.2077H25.9362L26.4841 26.5137L27.0183 28.2077Z" fill="#FFF200"/>
<path id="path5619" d="M32.7692 26.6673H34.5864L33.1231 27.763L33.6915 29.5002L32.2351 28.4273L30.7809 29.5002L31.3539 27.763L29.877 26.6673H31.6872L32.2351 24.9711L32.7692 26.6673Z" fill="#FFF200"/>
<path id="path5623" d="M32.7692 6.50827H34.5864L33.1231 7.60396L33.6915 9.34124L32.2351 8.27052L30.7809 9.34124L31.3539 7.60396L29.877 6.50827H31.6872L32.2351 4.81445L32.7692 6.50827Z" fill="#FFF200"/>
<path id="path5627" d="M37.0392 10.7785H38.8518L37.3908 11.8718L37.9592 13.6114L36.5028 12.5407L35.0509 13.6114L35.6239 11.8718L34.147 10.7785H35.9549L36.5028 9.08234L37.0392 10.7785Z" fill="#FFF200"/>
<path id="path5631" d="M37.0392 22.4561H38.8518L37.3908 23.5541L37.9592 25.2936L36.5028 24.2206L35.0509 25.2936L35.6239 23.5541L34.147 22.4561H35.9549L36.5028 20.76L37.0392 22.4561Z" fill="#FFF200"/>
<path id="path5635" d="M38.6393 16.5276H40.4564L38.9932 17.6233L39.5616 19.3628L38.1052 18.2898L36.651 19.3628L37.224 17.6233L35.7471 16.5276H37.555L38.1052 14.8336L38.6393 16.5276Z" fill="#FFF200"/>
<path id="path5639" d="M21.091 6.52287H22.9035L21.4426 7.6209L22.011 9.35808L20.5546 8.28512L19.0981 9.35808L19.6734 7.6209L18.1987 6.52287H20.0067L20.5546 4.82906L21.091 6.52287Z" fill="#FFF200"/>
<path id="path5643" d="M16.9396 10.7933H18.7567L17.2935 11.889L17.8596 13.6285L16.4055 12.5555L14.9513 13.6285L15.522 11.889L14.0474 10.7933H15.8576L16.4055 9.09935L16.9396 10.7933Z" fill="#FFF200"/>
<path id="path5647" d="M15.3988 16.5428H17.2136L15.7526 17.6385L16.3188 19.378L14.8646 18.3074L13.4082 19.378L13.9812 17.6385L12.5088 16.5428H14.3167L14.8646 14.849L15.3988 16.5428Z" fill="#FFF200"/>
<path id="path5651" d="M16.9396 22.4709H18.7567L17.2935 23.569L17.8596 25.3085L16.4055 24.2355L14.9513 25.3085L15.522 23.569L14.0474 22.4709H15.8576L16.4055 20.7795L16.9396 22.4709Z" fill="#FFF200"/>
<path id="path5655" d="M21.1516 26.6819H22.9641L21.5031 27.7776L22.067 29.5148L20.6151 28.4441L19.1587 29.5148L19.734 27.7776L18.2593 26.6819H20.0672L20.6151 24.9857L21.1516 26.6819Z" fill="#FFF200"/>
</g>
</g>
</svg>
